<svg width="100" height="98" viewBox="0 0 100 98" fill="none" xmlns="http://www.w3.org/2000/svg">
<g clip-path="url(#clip0_450_2250)">
<path fill-rule="evenodd" clip-rule="evenodd" d="M40.794 36.2884C39.3751 36.8486 38.6946 38.4146 39.2742 39.7863L47.2717 58.7146C47.8512 60.0863 49.4713 60.744 50.8902 60.1838L70.4713 52.4529C71.8902 51.8927 72.5707 50.3266 71.9911 48.955L63.9936 30.0267C63.4141 28.655 61.794 27.9973 60.3751 28.5575L40.794 36.2884Z" fill="#FF7F92"/>
<path fill-rule="evenodd" clip-rule="evenodd" d="M28.0368 26.8035C26.8392 24.1462 23.6391 22.9307 20.9025 24.0936L19.044 24.8833C18.3564 25.1755 18.0426 25.9543 18.3435 26.622C18.6445 27.2897 19.4465 27.5944 20.1341 27.3022L21.9926 26.5124C23.3554 25.9333 24.9494 26.5388 25.5458 27.8621L42.208 65.2283C40.3149 66.6736 39.5838 69.2327 40.5932 71.4724C41.7908 74.1297 44.9908 75.3453 47.7274 74.1824C50.0344 73.202 51.2851 70.8406 50.9045 68.5317L77.7591 58.3734C78.0969 58.2299 78.4925 58.3801 78.6404 58.7082L79.4537 60.5128C79.7546 61.1805 80.5567 61.4852 81.2443 61.193C81.9319 60.9008 82.2457 60.122 81.9447 59.4543L81.1314 57.6496C80.3821 55.9871 78.3811 55.227 76.669 55.9545L49.8144 66.1128C48.6034 64.6172 46.6337 63.869 44.699 64.1697L28.0368 26.8035ZM45.5653 71.9409C47.098 71.9409 48.3405 70.7398 48.3405 69.2582C48.3405 67.7766 47.098 66.5755 45.5653 66.5755C44.0326 66.5755 42.7901 67.7766 42.7901 69.2582C42.7901 70.7398 44.0326 71.9409 45.5653 71.9409Z" fill="#777676"/>
</g>
<path fill-rule="evenodd" clip-rule="evenodd" d="M77.5904 29.3134C78.0986 29.822 78.084 30.6325 77.5579 31.1238L60.501 47.0499C58.7825 48.6545 55.9983 48.4407 54.5634 46.594L49.8142 40.4818C49.3749 39.9164 49.4929 39.1138 50.0778 38.6891C50.6627 38.2644 51.493 38.3785 51.9323 38.9439L56.6815 45.0561C57.1598 45.6717 58.0878 45.7429 58.6607 45.2081L75.7175 29.282C76.2437 28.7907 77.0822 28.8048 77.5904 29.3134Z" fill="#777676"/>
<defs>
<clipPath id="clip0_450_2250">
<rect width="63.8298" height="61.702" fill="white" transform="translate(18.2292 18.2871)"/>
</clipPath>
</defs>
</svg>
