<svg width="24" height="24" viewBox="0 0 24 24" fill="none" xmlns="http://www.w3.org/2000/svg">
<path fill-rule="evenodd" clip-rule="evenodd" d="M13.5313 18.2336C13.5313 19.2082 12.7395 20 11.7664 20C10.7932 20 10 19.2082 10 18.2336C10 17.259 10.7932 16.4673 11.7664 16.4673C12.7395 16.4673 13.5313 17.259 13.5313 18.2336ZM13.5313 11.6289C13.5313 12.6035 12.7395 13.3953 11.7664 13.3953C10.7932 13.3953 10 12.6035 10 11.6289C10 10.6543 10.7932 9.86252 11.7664 9.86252C12.7395 9.86252 13.5313 10.6543 13.5313 11.6289ZM11.7664 6.7919C12.7395 6.7919 13.5313 6.00013 13.5313 5.02553C13.5313 4.05093 12.7395 3.25916 11.7664 3.25916C10.7932 3.25916 10 4.05093 10 5.02553C10 6.00013 10.7932 6.7919 11.7664 6.7919Z" fill="white"/>
</svg>

