<svg xmlns="http://www.w3.org/2000/svg" width="130" height="24" viewBox="0 0 130 24" fill="none">
    <g clip-path="url(#clip0_263_664)">
      <path d="M28.6876 23.0323C26.9073 23.0323 25.3824 22.6719 24.1205 21.9433C22.8585 21.2147 21.8895 20.187 21.2209 18.8449C20.5524 17.5028 20.2144 15.8922 20.2144 14.0133V5.64607C20.2144 4.87914 20.2144 4.13522 20.2294 3.40664C20.2369 2.67806 20.2294 1.98783 20.2144 1.33594H23.0989C23.0989 1.98783 23.0989 2.67806 23.1139 3.40664C23.1214 4.13522 23.1214 4.87914 23.1139 5.64607C23.1064 6.413 23.0989 7.17226 23.0989 7.93152V14.1283C23.0989 15.4167 23.3167 16.5288 23.7599 17.4568C24.2031 18.3847 24.8341 19.0903 25.6679 19.5735C26.5017 20.0567 27.5083 20.2944 28.6876 20.2944C29.867 20.2944 30.851 20.0567 31.6923 19.5735C32.5336 19.0903 33.1721 18.3847 33.6003 17.4568C34.0285 16.5288 34.2463 15.4167 34.2463 14.1283V5.64607C34.2463 4.87914 34.2463 4.13522 34.2613 3.40664C34.2689 2.67806 34.2613 1.98783 34.2463 1.33594H37.1609V14.0133C37.1609 15.8922 36.8228 17.5104 36.1543 18.8449C35.4858 20.187 34.5167 21.2224 33.2548 21.9433C31.9928 22.6719 30.4679 23.0323 28.6876 23.0323Z" fill="white"/>
      <path d="M51.9743 22.6642L45.0559 4.465H44.9658V22.6642H42.1113C42.1113 21.9893 42.1113 21.2914 42.1264 20.5628C42.1339 19.8342 42.1339 19.098 42.1264 18.3387C42.1188 17.5795 42.1113 16.8279 42.1113 16.0686V7.93152C42.1113 7.17226 42.1113 6.413 42.1264 5.64607C42.1339 4.87914 42.1339 4.13522 42.1264 3.40664C42.1188 2.67806 42.1113 1.98783 42.1113 1.33594H46.7386L53.5592 19.3818H53.6494L60.4475 1.33594H64.9245C64.9245 1.98783 64.9245 2.67806 64.9095 3.40664C64.902 4.13522 64.902 4.87914 64.9095 5.64607C64.917 6.413 64.9245 7.17226 64.9245 7.93152V16.061C64.9245 16.8202 64.9245 17.5718 64.9095 18.3311C64.902 19.0903 64.902 19.8266 64.9095 20.5552C64.917 21.2837 64.9245 21.9816 64.9245 22.6565H62.04V4.64907H61.9499L55.1592 22.6642H51.9743Z" fill="white"/>
      <path d="M84.1768 20.0873V22.6642H70.3477C70.3477 22.0277 70.3477 21.3604 70.3627 20.6549C70.3702 19.9493 70.3702 19.2207 70.3627 18.4768C70.3552 17.7329 70.3477 16.9889 70.3477 16.2527V7.93152C70.3477 7.17226 70.3477 6.413 70.3627 5.64607C70.3702 4.87914 70.3702 4.13522 70.3627 3.40664C70.3552 2.67806 70.3477 1.98783 70.3477 1.33594H83.9665V3.94349C83.5083 3.92048 83.02 3.91282 82.5092 3.91282C81.9984 3.91282 81.4425 3.91282 80.8416 3.92815C80.2406 3.93582 79.5796 3.94349 78.8585 3.94349H73.2697V10.6081H79.5496C80.1505 10.6081 80.7064 10.6081 81.2172 10.5928C81.728 10.5851 82.2162 10.5774 82.6744 10.5774V13.1543C82.2162 13.1543 81.728 13.1543 81.2172 13.1696C80.7064 13.1773 80.1505 13.185 79.5496 13.185H73.2697V20.0566H79.0688C79.7899 20.0566 80.451 20.0566 81.0519 20.072C81.6528 20.0797 82.2162 20.0873 82.7345 20.0873H84.1768Z" fill="white"/>
      <path d="M87.6625 20.5935C87.655 19.8649 87.655 19.121 87.6625 18.3541C87.67 17.5871 87.6775 16.8279 87.6775 16.0686V1.76542L87.6475 1.33594H91.9442L101.867 19.259H101.957V7.93152C101.957 7.17226 101.957 6.413 101.972 5.64607C101.98 4.87914 101.98 4.13522 101.972 3.40664C101.965 2.67806 101.957 1.98783 101.957 1.33594H104.842V22.6642H100.635L90.6522 4.61839H90.532V22.6642H87.6775C87.6775 22.0123 87.6775 21.3221 87.6625 20.5935Z" fill="white"/>
      <path d="M110.295 20.5935V1.33594H113.21C113.21 1.98783 113.21 2.67806 113.195 3.40664C113.187 4.13522 113.187 4.87914 113.195 5.64607C113.202 6.413 113.21 7.17226 113.21 7.93152V16.061C113.21 16.8202 113.21 17.5795 113.195 18.3464C113.187 19.1133 113.187 19.8572 113.195 20.5858C113.202 21.3144 113.21 22.0046 113.21 22.6565H110.295V20.5858V20.5935Z" fill="white"/>
      <path d="M122.72 23.0334C121.638 23.0334 120.564 22.8493 119.49 22.4812C118.415 22.1131 117.484 21.6146 116.68 20.978V18.1558C117.739 18.9303 118.746 19.4979 119.7 19.843C120.654 20.1881 121.578 20.3645 122.479 20.3645C123.298 20.3645 124.042 20.2418 124.703 19.9964C125.364 19.751 125.89 19.3752 126.28 18.8613C126.671 18.3475 126.866 17.7339 126.866 17.0207C126.866 16.3075 126.648 15.7476 126.22 15.2874C125.792 14.8273 125.123 14.3901 124.222 13.9837L121.548 12.7566C120.106 12.1047 119.024 11.2994 118.303 10.3484C117.582 9.39743 117.221 8.3314 117.221 7.14266C117.221 6.01528 117.521 4.9876 118.122 4.05961C118.723 3.13163 119.557 2.38004 120.631 1.82018C121.706 1.26033 122.907 0.976562 124.252 0.976562C125.214 0.976562 126.137 1.12228 127.016 1.40604C127.895 1.68981 128.616 2.04259 129.18 2.44906V5.11797C128.399 4.62714 127.617 4.25901 126.836 4.0136C126.055 3.76818 125.266 3.64547 124.462 3.64547C123.621 3.64547 122.877 3.77585 122.224 4.02894C121.57 4.28202 121.067 4.66549 120.706 5.16399C120.346 5.66249 120.166 6.2607 120.166 6.9586C120.166 7.65651 120.368 8.22403 120.782 8.73787C121.195 9.25172 121.848 9.71187 122.75 10.1183L125.454 11.3761C126.919 12.051 128.015 12.8103 128.744 13.6616C129.473 14.5128 129.841 15.5712 129.841 16.8366C129.841 18.0254 129.525 19.0914 128.894 20.0424C128.263 20.9934 127.399 21.7296 126.31 22.2511C125.221 22.7727 124.019 23.0334 122.72 23.0334Z" fill="white"/>
      <path d="M0 21.8666C2.26104 21.3604 2.75681 20.141 3.15494 18.7375L7.031 5.23193C7.65448 3.13055 6.79063 2.40964 5.21316 2.13354V1.33594H13.3484V2.13354C11.6057 2.32527 10.7043 3.11521 10.1559 5.20892L5.58875 21.0383H10.9972C13.6939 21.0383 15.324 18.4921 15.324 15.34H16.3831V22.6642H0V21.8666Z" fill="white"/>
    </g>
    <defs>
      <clipPath id="clip0_263_664">
        <rect width="129.841" height="22.0645" fill="white" transform="translate(0 0.96875)"/>
      </clipPath>
    </defs>
  </svg>