<svg width="198" height="36" viewBox="0 0 198 36" fill="none" xmlns="http://www.w3.org/2000/svg">
<g clip-path="url(#clip0_1_2)">
<path d="M28.6874 29.0323C26.9071 29.0323 25.3822 28.6719 24.1202 27.9433C22.8583 27.2147 21.8892 26.187 21.2207 24.8449C20.5521 23.5028 20.2141 21.8922 20.2141 20.0133V11.6461C20.2141 10.8791 20.2141 10.1352 20.2291 9.40664C20.2366 8.67806 20.2291 7.98783 20.2141 7.33594H23.0986C23.0986 7.98783 23.0986 8.67806 23.1136 9.40664C23.1212 10.1352 23.1212 10.8791 23.1136 11.6461C23.1061 12.413 23.0986 13.1723 23.0986 13.9315V20.1283C23.0986 21.4167 23.3165 22.5288 23.7597 23.4568C24.2029 24.3847 24.8338 25.0903 25.6676 25.5735C26.5015 26.0567 27.508 26.2944 28.6874 26.2944C29.8667 26.2944 30.8508 26.0567 31.6921 25.5735C32.5334 25.0903 33.1719 24.3847 33.6001 23.4568C34.0282 22.5288 34.2461 21.4167 34.2461 20.1283V11.6461C34.2461 10.8791 34.2461 10.1352 34.2611 9.40664C34.2686 8.67806 34.2611 7.98783 34.2461 7.33594H37.1606V20.0133C37.1606 21.8922 36.8226 23.5104 36.1541 24.8449C35.4855 26.187 34.5165 27.2224 33.2545 27.9433C31.9925 28.6719 30.4677 29.0323 28.6874 29.0323Z" fill="white"/>
<path d="M51.9738 28.6642L45.0555 10.465H44.9654V28.6642H42.1109C42.1109 27.9893 42.1109 27.2914 42.1259 26.5628C42.1334 25.8342 42.1334 25.098 42.1259 24.3387C42.1184 23.5795 42.1109 22.8279 42.1109 22.0686V13.9315C42.1109 13.1723 42.1109 12.413 42.1259 11.6461C42.1334 10.8791 42.1334 10.1352 42.1259 9.40664C42.1184 8.67806 42.1109 7.98783 42.1109 7.33594H46.7381L53.5588 25.3818H53.649L60.4471 7.33594H64.9241C64.9241 7.98783 64.9241 8.67806 64.9091 9.40664C64.9016 10.1352 64.9016 10.8791 64.9091 11.6461C64.9166 12.413 64.9241 13.1723 64.9241 13.9315V22.061C64.9241 22.8202 64.9241 23.5718 64.9091 24.3311C64.9016 25.0903 64.9016 25.8266 64.9091 26.5552C64.9166 27.2837 64.9241 27.9816 64.9241 28.6565H62.0396V10.6491H61.9494L55.1588 28.6642H51.9738Z" fill="white"/>
<path d="M84.1767 26.0873V28.6642H70.3476C70.3476 28.0277 70.3476 27.3604 70.3626 26.6549C70.3701 25.9493 70.3701 25.2207 70.3626 24.4768C70.3551 23.7329 70.3476 22.9889 70.3476 22.2527V13.9315C70.3476 13.1723 70.3476 12.413 70.3626 11.6461C70.3701 10.8791 70.3701 10.1352 70.3626 9.40664C70.3551 8.67806 70.3476 7.98783 70.3476 7.33594H83.9664V9.94349C83.5082 9.92048 83.0199 9.91282 82.5091 9.91282C81.9983 9.91282 81.4425 9.91282 80.8415 9.92815C80.2406 9.93582 79.5795 9.94349 78.8584 9.94349H73.2697V16.6081H79.5495C80.1504 16.6081 80.7063 16.6081 81.2171 16.5928C81.7279 16.5851 82.2162 16.5774 82.6744 16.5774V19.1543C82.2162 19.1543 81.7279 19.1543 81.2171 19.1696C80.7063 19.1773 80.1504 19.185 79.5495 19.185H73.2697V26.0566H79.0687C79.7899 26.0566 80.4509 26.0566 81.0518 26.072C81.6528 26.0797 82.2162 26.0873 82.7345 26.0873H84.1767Z" fill="white"/>
<path d="M87.6622 26.5935C87.6547 25.8649 87.6547 25.121 87.6622 24.3541C87.6697 23.5871 87.6772 22.8279 87.6772 22.0686V7.76542L87.6472 7.33594H91.9439L101.867 25.259H101.957V13.9315C101.957 13.1723 101.957 12.413 101.972 11.6461C101.98 10.8791 101.98 10.1352 101.972 9.40664C101.965 8.67806 101.957 7.98783 101.957 7.33594H104.842V28.6642H100.635L90.6519 10.6184H90.5317V28.6642H87.6772C87.6772 28.0123 87.6772 27.3221 87.6622 26.5935Z" fill="white"/>
<path d="M110.295 26.5935V7.33594H113.21C113.21 7.98783 113.21 8.67806 113.195 9.40664C113.187 10.1352 113.187 10.8791 113.195 11.6461C113.202 12.413 113.21 13.1723 113.21 13.9315V22.061C113.21 22.8202 113.21 23.5795 113.195 24.3464C113.187 25.1133 113.187 25.8572 113.195 26.5858C113.202 27.3144 113.21 28.0046 113.21 28.6565H110.295V26.5858V26.5935Z" fill="white"/>
<path d="M122.72 29.0323C121.638 29.0323 120.564 28.8482 119.49 28.4801C118.415 28.112 117.484 27.6135 116.68 26.9769V24.1547C117.739 24.9292 118.746 25.4968 119.7 25.8419C120.654 26.187 121.578 26.3634 122.479 26.3634C123.298 26.3634 124.042 26.2407 124.703 25.9953C125.364 25.7499 125.89 25.3741 126.28 24.8602C126.671 24.3464 126.866 23.7328 126.866 23.0196C126.866 22.3064 126.648 21.7465 126.22 21.2863C125.792 20.8262 125.123 20.389 124.222 19.9826L121.548 18.7555C120.105 18.1036 119.024 17.2983 118.303 16.3473C117.582 15.3963 117.221 14.3303 117.221 13.1416C117.221 12.0142 117.521 10.9865 118.122 10.0585C118.723 9.13053 119.557 8.37894 120.631 7.81908C121.705 7.25923 122.907 6.97546 124.252 6.97546C125.213 6.97546 126.137 7.12118 127.016 7.40494C127.895 7.68871 128.616 8.04149 129.18 8.44797V11.1169C128.398 10.626 127.617 10.2579 126.836 10.0125C126.055 9.76708 125.266 9.64437 124.462 9.64437C123.621 9.64437 122.877 9.77475 122.224 10.0278C121.57 10.2809 121.067 10.6644 120.706 11.1629C120.346 11.6614 120.166 12.2596 120.166 12.9575C120.166 13.6554 120.368 14.2229 120.782 14.7368C121.195 15.2506 121.848 15.7108 122.75 16.1172L125.454 17.375C126.919 18.0499 128.015 18.8092 128.744 19.6605C129.473 20.5117 129.841 21.5701 129.841 22.8355C129.841 24.0243 129.525 25.0903 128.894 26.0413C128.263 26.9923 127.399 27.7285 126.31 28.25C125.221 28.7716 124.019 29.0323 122.72 29.0323Z" fill="white"/>
<path d="M0 27.8666C2.26104 27.3604 2.75681 26.141 3.15494 24.7375L7.031 11.2319C7.65448 9.13055 6.79063 8.40964 5.21316 8.13354V7.33594H13.3484V8.13354C11.6057 8.32527 10.7043 9.11521 10.1559 11.2089L5.58875 27.0383H10.9972C13.6939 27.0383 15.324 24.4921 15.324 21.34H16.3831V28.6642H0V27.8666Z" fill="white"/>
</g>
<path d="M142.341 29C142.982 27.3053 143.819 25.1043 144.852 22.397L150.587 7.455H154.152L159.887 22.304C160.92 24.97 161.788 27.202 162.491 29H159.236C158.347 26.6027 157.521 24.3913 156.756 22.366L152.323 10.71H152.199L147.797 22.428C147.053 24.4327 146.247 26.6233 145.379 29H142.341ZM146.712 22.862V20.227H157.562V22.862H146.712ZM172.039 20.475H168.784V22.335C168.784 23.4923 168.784 24.6393 168.784 25.776C168.784 26.9127 168.784 27.9873 168.784 29H165.808V22.335V14.12C165.808 12.9833 165.808 11.8467 165.808 10.71C165.808 9.57333 165.808 8.48833 165.808 7.455H172.039C173.631 7.455 175.005 7.71333 176.162 8.23C177.34 8.74667 178.25 9.501 178.89 10.493C179.552 11.4643 179.882 12.6113 179.882 13.934C179.882 15.2567 179.552 16.414 178.89 17.406C178.25 18.3773 177.34 19.1317 176.162 19.669C174.984 20.2063 173.61 20.475 172.039 20.475ZM168.784 9.997V17.933H171.481C173.217 17.933 174.54 17.6127 175.449 16.972C176.359 16.3107 176.813 15.298 176.813 13.934C176.813 12.57 176.359 11.578 175.449 10.958C174.561 10.3173 173.238 9.997 171.481 9.997H168.784ZM189.999 20.475H186.744V22.335C186.744 23.4923 186.744 24.6393 186.744 25.776C186.744 26.9127 186.744 27.9873 186.744 29H183.768V22.335V14.12C183.768 12.9833 183.768 11.8467 183.768 10.71C183.768 9.57333 183.768 8.48833 183.768 7.455H189.999C191.591 7.455 192.965 7.71333 194.122 8.23C195.3 8.74667 196.21 9.501 196.85 10.493C197.512 11.4643 197.842 12.6113 197.842 13.934C197.842 15.2567 197.512 16.414 196.85 17.406C196.21 18.3773 195.3 19.1317 194.122 19.669C192.944 20.2063 191.57 20.475 189.999 20.475ZM186.744 9.997V17.933H189.441C191.177 17.933 192.5 17.6127 193.409 16.972C194.319 16.3107 194.773 15.298 194.773 13.934C194.773 12.57 194.319 11.578 193.409 10.958C192.521 10.3173 191.198 9.997 189.441 9.997H186.744Z" fill="white"/>
<defs>
<clipPath id="clip0_1_2">
<rect width="129.841" height="22.0645" fill="white" transform="translate(0 6.96777)"/>
</clipPath>
</defs>
</svg>
