<!DOCTYPE svg PUBLIC "-//W3C//DTD SVG 1.1//EN" "http://www.w3.org/Graphics/SVG/1.1/DTD/svg11.dtd">

<!-- Uploaded to: SVG Repo, www.svgrepo.com, Transformed by: SVG Repo Mixer Tools -->
<svg width="45" height="45" viewBox="0 0 45 45" fill="none" xmlns="http://www.w3.org/2000/svg">
    <g opacity="0.3">
        <g clip-path="url(#clip0_18098_219872)">
            <path
                d="M30.5596 41.0297C30.291 41.0297 30.0159 40.9961 29.744 40.9241L5.01459 34.3016C3.31937 33.8346 2.30864 32.0786 2.75323 30.3834L5.8734 18.7535C5.98854 18.3265 6.42674 18.0787 6.85215 18.1874C7.27915 18.301 7.53184 18.7408 7.41829 19.1662L4.29972 30.7928C4.07742 31.6404 4.58599 32.5232 5.4352 32.7583L30.155 39.3777C31.0042 39.6016 31.8806 39.0962 32.1013 38.2518L33.3504 33.6235C33.4655 33.1965 33.9037 32.9422 34.3307 33.059C34.7577 33.1741 35.0088 33.6139 34.8953 34.0393L33.6478 38.6612C33.272 40.0845 31.9766 41.0297 30.5596 41.0297Z"
                fill="white" />
            <path
                d="M37.8297 31.4341H12.2415C10.4775 31.4341 9.04297 29.9995 9.04297 28.2355V9.04435C9.04297 7.28037 10.4775 5.84583 12.2415 5.84583H37.8297C39.5937 5.84583 41.0283 7.28037 41.0283 9.04435V28.2355C41.0283 29.9995 39.5937 31.4341 37.8297 31.4341ZM12.2415 7.44509C11.3603 7.44509 10.6422 8.16316 10.6422 9.04435V28.2355C10.6422 29.1167 11.3603 29.8348 12.2415 29.8348H37.8297C38.7109 29.8348 39.429 29.1167 39.429 28.2355V9.04435C39.429 8.16316 38.7109 7.44509 37.8297 7.44509H12.2415Z"
                fill="white" />
            <path
                d="M17.0393 17.0406C15.2754 17.0406 13.8408 15.6061 13.8408 13.8421C13.8408 12.0781 15.2754 10.6436 17.0393 10.6436C18.8033 10.6436 20.2379 12.0781 20.2379 13.8421C20.2379 15.6061 18.8033 17.0406 17.0393 17.0406ZM17.0393 12.2428C16.1582 12.2428 15.4401 12.9609 15.4401 13.8421C15.4401 14.7233 16.1582 15.4413 17.0393 15.4413C17.9205 15.4413 18.6386 14.7233 18.6386 13.8421C18.6386 12.9609 17.9205 12.2428 17.0393 12.2428Z"
                fill="white" />
            <path
                d="M9.95628 29.7225C9.75158 29.7225 9.54687 29.6442 9.39014 29.489C9.07829 29.1772 9.07829 28.6702 9.39014 28.3584L16.9435 20.805C17.8487 19.8999 19.4303 19.8999 20.3355 20.805L22.5841 23.0536L28.8084 15.585C29.261 15.0429 29.9263 14.7278 30.6348 14.7214H30.6524C31.3528 14.7214 32.0165 15.0253 32.4739 15.5579L40.8381 25.3166C41.1259 25.6508 41.0876 26.1562 40.7517 26.444C40.4175 26.7319 39.9137 26.6951 39.6242 26.3577L31.2601 16.599C31.105 16.4199 30.8907 16.3207 30.6524 16.3207C30.486 16.3063 30.1934 16.4215 30.0382 16.6086L23.2526 24.7504C23.1086 24.9231 22.8991 25.0271 22.6736 25.0367C22.4465 25.0527 22.2306 24.9631 22.0723 24.8032L19.2048 21.9357C18.9026 21.6351 18.3764 21.6351 18.0741 21.9357L10.5208 29.489C10.3657 29.6442 10.161 29.7225 9.95628 29.7225Z"
                fill="white" />
        </g>
    </g>
    <defs>
        <clipPath id="clip0_18098_219872">
            <rect width="38.3824" height="38.3824" fill="white"
                transform="translate(2.64746 2.64709)" />
        </clipPath>
    </defs>
</svg>