<svg width="76" height="76" viewBox="0 0 76 76" fill="none" xmlns="http://www.w3.org/2000/svg">
    <circle cx="38" cy="38" r="38" fill="#403B3B" />
    <g clip-path="url(#clip0_200_35554)">
        <path
            d="M31.1629 38.7613C30.7094 37.733 30.2882 36.7811 29.8669 35.8292C29.2546 34.4489 28.6906 33.0431 28.0185 31.6929C27.0816 29.81 28.0231 27.5982 30.3434 27.1605C30.394 27.1512 30.4424 27.1258 30.4884 27.1095C29.9567 25.0692 30.4102 23.7583 31.8949 23.0218C33.4555 22.246 34.8321 22.6073 35.9784 24.1103C36.906 23.404 37.9166 23.0172 39.0951 23.3739C40.2875 23.7375 40.8745 24.6708 41.2727 25.808C41.8781 25.2498 42.5226 24.9117 43.2891 24.863C44.668 24.7773 45.7913 25.4791 46.3829 26.7969C47.6719 29.6641 48.9564 32.5336 50.2385 35.4054C50.8876 36.8599 51.6334 38.2819 52.1467 39.7826C53.2793 43.0991 52.9616 46.3045 50.9636 49.2295C49.7689 50.9804 48.0103 52.0666 46.1273 52.9421C42.2993 54.7208 38.6831 54.1695 35.2349 51.8976C33.4187 50.7025 31.9317 49.1531 30.5068 47.5273C29.6851 46.5916 28.8011 45.7069 27.8965 44.8523C26.8123 43.8287 26.4141 42.2746 26.9619 40.892C27.5075 39.5186 28.8357 38.6339 30.3066 38.6733C30.5621 38.6802 30.8176 38.7265 31.1629 38.7636V38.7613ZM50.7587 43.3539C50.7725 42.0963 50.517 40.8943 50.0037 39.7502C48.1944 35.7158 46.3829 31.6813 44.5713 27.6492C44.2651 26.966 43.6712 26.7043 43.0774 26.9729C42.5065 27.2323 42.3016 27.8437 42.5802 28.5107C42.9185 29.3213 43.2707 30.1273 43.616 30.9356C44.2168 32.3367 44.8176 33.7379 45.423 35.1368C45.5979 35.5397 45.5818 35.9149 45.301 36.2577C45.0524 36.5634 44.7209 36.663 44.3434 36.5958C43.9383 36.524 43.7173 36.2461 43.5585 35.8848C42.7781 34.1131 41.9909 32.3437 41.2036 30.5743C40.52 29.0295 39.8386 27.4847 39.1481 25.9423C38.8511 25.2799 38.3171 25.0946 37.6657 25.4096C37.0718 25.6968 36.8968 26.2017 37.1869 26.8571C38.0685 28.8558 38.957 30.8499 39.8409 32.8462C40.3036 33.8884 40.7617 34.933 41.2244 35.9728C41.4016 36.3735 41.3763 36.7533 41.0955 37.0938C40.833 37.4087 40.4832 37.5014 40.0941 37.4157C39.6752 37.3231 39.4818 36.9965 39.3207 36.6306C38.2849 34.2798 37.2421 31.9338 36.2017 29.5853C35.5733 28.1656 34.9494 26.7459 34.3141 25.3309C34.0218 24.6801 33.5062 24.4948 32.8662 24.7889C32.2332 25.0807 32.0606 25.5995 32.3713 26.2966C33.741 29.37 35.1129 32.441 36.4848 35.5143C36.7541 36.1164 37.0326 36.7139 37.2789 37.3254C37.4907 37.8511 37.2674 38.3861 36.784 38.6107C36.2845 38.8447 35.7344 38.6455 35.4628 38.1336C35.3983 38.0132 35.3477 37.8835 35.2924 37.7585C34.1346 35.146 32.9767 32.5359 31.8235 29.9212C31.6347 29.4927 31.3861 29.1569 30.8705 29.143C29.9636 29.1175 29.4342 29.9003 29.8071 30.741C31.2388 33.9811 32.6775 37.2212 34.1208 40.4543C34.1944 40.6187 34.3302 40.7785 34.4776 40.8827C35.3431 41.5104 36.227 42.1125 37.0902 42.7425C37.2812 42.8814 37.4631 43.0783 37.569 43.2867C37.7646 43.6781 37.615 44.1645 37.2743 44.4378C36.8922 44.7412 36.4503 44.7412 35.9853 44.4146C34.3924 43.296 32.8064 42.1681 31.2135 41.0495C30.4286 40.4983 29.5469 40.5955 29.0244 41.2857C28.5134 41.9573 28.6722 42.7934 29.3536 43.4512C30.2582 44.3266 31.1606 45.2136 31.9938 46.1585C33.2714 47.6037 34.5927 48.9933 36.1856 50.0888C37.9672 51.3139 39.8939 52.0852 42.0968 51.9578C43.9567 51.8489 45.5772 51.0823 47.1218 50.105C49.5963 48.5417 50.7311 46.2489 50.7587 43.3516V43.3539Z"
            fill="white" />
        <path
            d="M21.0114 35.989C20.9746 33.8097 21.3452 31.6952 22.0726 29.6432C22.2775 29.0665 22.6112 28.8048 23.1107 28.821C23.8197 28.8442 24.1857 29.4927 23.9878 30.2546C23.6678 31.4867 23.334 32.7235 23.12 33.9764C22.8598 35.5026 22.945 37.0474 23.1798 38.5783C23.2028 38.7265 23.2281 38.877 23.2327 39.0276C23.2535 39.5996 22.9036 40.0258 22.3672 40.0906C21.8332 40.1555 21.3544 39.8243 21.2669 39.2708C21.1565 38.5783 21.0782 37.8812 21.0183 37.1841C20.9838 36.788 21.0114 36.3874 21.0114 35.989Z"
            fill="white" />
        <path
            d="M56 29.6752C56.0046 30.2449 55.7237 30.6201 55.2703 30.7521C54.8329 30.8795 54.3818 30.7012 54.1493 30.2866C54.0411 30.0967 53.9674 29.8883 53.8799 29.6868C52.9431 27.5422 51.6218 25.6709 49.9207 24.0728C49.8309 23.9871 49.7389 23.9061 49.6491 23.8204C49.168 23.3572 49.1151 22.7573 49.5156 22.3243C49.9092 21.8981 50.4893 21.8865 50.9796 22.3219C52.218 23.4197 53.316 24.6518 54.1769 26.0669C54.7961 27.0836 55.3071 28.1675 55.855 29.2259C55.9401 29.3927 55.97 29.5872 55.9977 29.6775L56 29.6752Z"
            fill="white" />
    </g>
    <defs>
        <clipPath id="clip0_200_35554">
            <rect width="35" height="32" fill="white" transform="translate(21 22)" />
        </clipPath>
    </defs>
</svg>