<svg width="100" height="98" viewBox="0 0 100 98" fill="none" xmlns="http://www.w3.org/2000/svg">
<path d="M91.0389 26.2799C90.6423 26.2799 90.3293 26.1547 90.0997 25.9043C89.891 25.633 89.7867 25.2782 89.7867 24.8399C89.7867 24.193 89.8597 23.5878 90.0058 23.0243C90.1728 22.4399 90.4336 21.8556 90.7884 21.2712C91.1432 20.6869 91.6128 20.0712 92.1971 19.4243C92.6354 18.9234 92.9797 18.4851 93.2302 18.1095C93.5015 17.713 93.6893 17.3373 93.7936 16.9825C93.9189 16.6278 93.9815 16.2625 93.9815 15.8869C93.9815 15.1982 93.731 14.6556 93.2302 14.2591C92.7293 13.8625 92.0197 13.6643 91.1015 13.6643C90.2667 13.6643 89.5049 13.7791 88.8162 14.0086C88.1484 14.2173 87.4702 14.5199 86.7815 14.9164C86.3223 15.1878 85.9049 15.313 85.5293 15.2921C85.1745 15.2504 84.8823 15.1147 84.6528 14.8851C84.4232 14.6556 84.2771 14.3738 84.2145 14.0399C84.1519 13.706 84.2041 13.3617 84.371 13.0069C84.538 12.6521 84.8406 12.3286 85.2789 12.0364C86.1345 11.473 87.1154 11.0451 88.2215 10.753C89.3275 10.4399 90.371 10.2834 91.3519 10.2834C92.6667 10.2834 93.8145 10.5025 94.7954 10.9408C95.7971 11.3791 96.5693 11.9843 97.1119 12.7564C97.6754 13.5286 97.9571 14.4364 97.9571 15.4799C97.9571 16.1269 97.8632 16.7425 97.6754 17.3269C97.4875 17.8904 97.1849 18.4643 96.7675 19.0486C96.3502 19.6121 95.7762 20.2278 95.0458 20.8956C94.3989 21.4799 93.8771 22.0121 93.4806 22.4921C93.1049 22.9721 92.8232 23.4312 92.6354 23.8695C92.4684 24.3078 92.3536 24.7773 92.291 25.2782C92.2702 25.5704 92.1449 25.8104 91.9154 25.9982C91.7067 26.186 91.4145 26.2799 91.0389 26.2799ZM90.9762 32.8225C90.2667 32.8225 89.6928 32.6034 89.2545 32.1651C88.8371 31.7269 88.6284 31.1634 88.6284 30.4747C88.6284 29.8069 88.8371 29.2643 89.2545 28.8469C89.6928 28.4086 90.2667 28.1895 90.9762 28.1895C91.7067 28.1895 92.2702 28.4086 92.6667 28.8469C93.0841 29.2643 93.2928 29.8069 93.2928 30.4747C93.2928 31.1634 93.0841 31.7269 92.6667 32.1651C92.2702 32.6034 91.7067 32.8225 90.9762 32.8225Z" fill="#7B8894"/>
<path d="M14.9518 45.8444C14.5553 45.8444 14.2423 45.7192 14.0127 45.4687C13.804 45.1974 13.6996 44.8426 13.6996 44.4044C13.6996 43.7574 13.7727 43.1522 13.9188 42.5887C14.0857 42.0044 14.3466 41.42 14.7014 40.8357C15.0562 40.2513 15.5257 39.6357 16.1101 38.9887C16.5483 38.4879 16.8927 38.0496 17.1431 37.6739C17.4144 37.2774 17.6023 36.9018 17.7066 36.547C17.8318 36.1922 17.8944 35.827 17.8944 35.4513C17.8944 34.7626 17.644 34.22 17.1431 33.8235C16.6423 33.427 15.9327 33.2287 15.0144 33.2287C14.1796 33.2287 13.4179 33.3435 12.7292 33.5731C12.0614 33.7818 11.3831 34.0844 10.6944 34.4809C10.2353 34.7522 9.8179 34.8774 9.44225 34.8566C9.08747 34.8148 8.7953 34.6792 8.56573 34.4496C8.33616 34.22 8.19008 33.9383 8.12747 33.6044C8.06486 33.2705 8.11703 32.9261 8.28399 32.5713C8.45095 32.2166 8.75356 31.8931 9.19182 31.6009C10.0475 31.0374 11.0283 30.6096 12.1344 30.3174C13.2405 30.0044 14.284 29.8479 15.2649 29.8479C16.5796 29.8479 17.7275 30.067 18.7083 30.5053C19.7101 30.9435 20.4823 31.5487 21.0249 32.3209C21.5883 33.0931 21.8701 34.0009 21.8701 35.0444C21.8701 35.6913 21.7762 36.307 21.5883 36.8913C21.4005 37.4548 21.0979 38.0287 20.6805 38.6131C20.2631 39.1766 19.6892 39.7922 18.9588 40.46C18.3118 41.0444 17.7901 41.5766 17.3936 42.0566C17.0179 42.5366 16.7362 42.9957 16.5483 43.4339C16.3814 43.8722 16.2666 44.3418 16.204 44.8426C16.1831 45.1348 16.0579 45.3748 15.8283 45.5626C15.6196 45.7505 15.3275 45.8444 14.9518 45.8444ZM14.8892 52.387C14.1796 52.387 13.6057 52.1679 13.1675 51.7296C12.7501 51.2913 12.5414 50.7279 12.5414 50.0392C12.5414 49.3713 12.7501 48.8287 13.1675 48.4113C13.6057 47.9731 14.1796 47.7539 14.8892 47.7539C15.6196 47.7539 16.1831 47.9731 16.5796 48.4113C16.997 48.8287 17.2057 49.3713 17.2057 50.0392C17.2057 50.7279 16.997 51.2913 16.5796 51.7296C16.1831 52.1679 15.6196 52.387 14.8892 52.387Z" fill="#7B8894"/>
<path d="M78.479 36.9273C78.0898 36.3601 77.3147 36.2161 76.7476 36.6052C76.1805 36.9945 76.0364 37.7697 76.4255 38.3367C84.4222 49.9869 82.9608 65.7064 72.9509 75.7144C61.4919 87.1712 42.8472 87.1712 31.3882 75.7144C25.8372 70.1647 22.7803 62.786 22.7803 54.9374C22.7803 47.0889 25.8372 39.7101 31.3881 34.1602C41.3881 24.1622 57.1011 22.6942 68.7497 30.6699C69.3171 31.0581 70.092 30.9134 70.4807 30.3458C70.8692 29.7783 70.7243 29.0034 70.1567 28.6149C57.5195 19.9625 40.4744 21.5535 29.6271 32.3991C23.6058 38.4192 20.2897 46.4236 20.2897 54.9374C20.2897 63.4512 23.6058 71.4556 29.6271 77.4757C35.6484 83.496 43.654 86.8115 52.1694 86.8115C60.6848 86.8115 68.6905 83.496 74.7118 77.4757C85.57 66.6196 87.1544 49.5665 78.479 36.9273Z" fill="#7B8894"/>
<path d="M73.0673 34.6011C73.5138 34.8982 74.1118 34.8721 74.5325 34.5412C74.9289 34.2294 75.0969 33.6868 74.9502 33.2048C74.7994 32.7093 74.3435 32.3502 73.8258 32.3221C73.2897 32.2929 72.7826 32.6253 72.5941 33.1274C72.3941 33.6599 72.5885 34.2873 73.0673 34.6011Z" fill="#7B8894"/>
<path d="M66.7265 51.8446V49.4755C66.7265 47.0346 64.7405 45.0488 62.2992 45.0488C59.8581 45.0488 57.8721 47.0346 57.8721 49.4755V51.8446C57.8721 54.2854 59.8581 56.2711 62.2992 56.2711C64.7404 56.271 66.7265 54.2852 66.7265 51.8446ZM64.2359 51.8446C64.2359 52.912 63.3671 53.7805 62.2992 53.7805C61.2314 53.7805 60.3627 52.912 60.3627 51.8446V49.4755C60.3627 48.408 61.2314 47.5394 62.2992 47.5394C63.3671 47.5394 64.2359 48.408 64.2359 49.4755V51.8446Z" fill="#7B8894"/>
<path d="M42.04 56.2711C44.4811 56.2711 46.4671 54.2854 46.4671 51.8446V49.4755C46.4671 47.0346 44.4811 45.0488 42.04 45.0488C39.5988 45.0488 37.6128 47.0346 37.6128 49.4755V51.8446C37.6128 54.2854 39.5988 56.2711 42.04 56.2711ZM40.1034 49.4755C40.1034 48.408 40.9721 47.5394 42.04 47.5394C43.1078 47.5394 43.9765 48.408 43.9765 49.4755V51.8446C43.9765 52.912 43.1078 53.7805 42.04 53.7805C40.9721 53.7805 40.1034 52.912 40.1034 51.8446V49.4755Z" fill="#7B8894"/>
<path d="M41.5491 70.4767C41.8678 70.4767 42.1864 70.3551 42.4295 70.1121C47.7998 64.7427 56.5378 64.7427 61.9082 70.1121C62.3945 70.5983 63.183 70.5983 63.6694 70.1118C64.1556 69.6256 64.1554 68.837 63.6691 68.3506C57.3278 62.0108 47.0097 62.0106 40.6685 68.3507C40.1821 68.8369 40.1821 69.6254 40.6684 70.1118C40.9117 70.355 41.2303 70.4767 41.5491 70.4767Z" fill="#7B8894"/>
<path d="M43.5649 38.6271C43.8273 37.9914 43.5247 37.2633 42.889 37.0009C42.2529 36.7382 41.5251 37.0411 41.2627 37.6768C41.0286 38.2443 40.0883 39.1658 38.5771 39.8485C37.1717 40.4836 35.7721 40.6608 34.9247 40.3114C34.2886 40.0493 33.5607 40.3519 33.2985 40.9877C33.0363 41.6234 33.339 42.3514 33.9747 42.6138C34.575 42.8614 35.2457 42.9731 35.9478 42.9731C39.0035 42.973 42.6448 40.8566 43.5649 38.6271Z" fill="#7B8894"/>
<path d="M69.414 40.3113C68.5666 40.6608 67.167 40.4836 65.7616 39.8484C64.2504 39.1657 63.3101 38.2441 63.0761 37.6767C62.8136 37.0411 62.0858 36.7385 61.4497 37.0006C60.8141 37.263 60.5114 37.9911 60.7736 38.627C61.6939 40.8566 65.3349 42.9729 68.3908 42.9729C69.0926 42.9729 69.7637 42.8613 70.3638 42.6136C70.9996 42.3513 71.3024 41.6233 71.0402 40.9875C70.7779 40.3516 70.0496 40.0491 69.414 40.3113Z" fill="#7B8894"/>
<path d="M96.7224 20.8828H95.3088V24.1618H92.0288V25.5749H95.3088V28.8538H96.7224V25.5749H99.9998V24.1618H96.7224V20.8828Z" fill="#7B8894"/>
<path d="M72.8098 7.83984H71.3962V11.1188H68.1162V12.5319H71.3962V15.8108H72.8098V12.5319H76.0872V11.1188H72.8098V7.83984Z" fill="#7B8894"/>
<path d="M4.69357 51.3184H3.28003V54.5973H0V56.0104H3.28003V59.2894H4.69357V56.0104H7.971V54.5973H4.69357V51.3184Z" fill="#7B8894"/>
</svg>
