<svg width="100" height="100" viewBox="0 0 100 100" fill="none" xmlns="http://www.w3.org/2000/svg">
<path fill-rule="evenodd" clip-rule="evenodd" d="M15.3652 13.8024C13.4889 9.49568 8.4755 7.52568 4.18811 9.4104L1.27644 10.6904C0.199176 11.1639 -0.292364 12.4261 0.179071 13.5083C0.650506 14.5904 1.90705 15.0841 2.98431 14.6106L5.89599 13.3306C8.03104 12.392 10.5282 13.3733 11.4626 15.518L37.5667 76.0772C34.6009 78.4196 33.4554 82.5671 35.0368 86.1969C36.9131 90.5037 41.9265 92.4737 46.2138 90.5889C49.8281 89.0001 51.7876 85.173 51.1913 81.4309L93.2634 64.9675C93.7927 64.7348 94.4125 64.9784 94.6441 65.51L95.9183 68.4348C96.3898 69.5169 97.6463 70.0107 98.7236 69.5371C99.8008 69.0636 100.292 67.8014 99.8209 66.7192L98.5467 63.7944C97.3729 61.1 94.2379 59.8681 91.5556 61.0472L49.4834 77.5107C47.5862 75.0867 44.5003 73.8741 41.4693 74.3616L15.3652 13.8024ZM42.8265 86.9562C45.2278 86.9562 47.1743 85.0096 47.1743 82.6083C47.1743 80.2071 45.2278 78.2605 42.8265 78.2605C40.4253 78.2605 38.4787 80.2071 38.4787 82.6083C38.4787 85.0096 40.4253 86.9562 42.8265 86.9562Z" fill="#777676"/>
<path fill-rule="evenodd" clip-rule="evenodd" d="M32.8306 34.45C32.8704 34.5824 32.917 34.714 32.9703 34.8446L45.4997 65.5217C46.4077 67.7447 48.9457 68.8107 51.1687 67.9028L81.8458 55.3733C82.487 55.1115 83.0319 54.714 83.461 54.2275L32.8306 34.45ZM81.3531 42.6683L71.6974 19.0273C70.7895 16.8043 68.2514 15.7383 66.0285 16.6462L40.954 26.8874L81.3531 42.6683Z" fill="#777676"/>
<path d="M25.5 26L88 51" stroke="#777676" stroke-width="2" stroke-linecap="round"/>
</svg>
