<svg width="53" height="53" viewBox="0 0 53 53" fill="none" xmlns="http://www.w3.org/2000/svg">
    <g filter="url(#filter0_d_282_332)">
        <circle cx="25.5" cy="25.5" r="22.5" fill="black" />
    </g>
    <path fill-rule="evenodd" clip-rule="evenodd"
        d="M14.9005 18.5763C15.1491 18.7378 15.4953 18.9842 15.9764 19.3458L24.8654 26.9303C25.0438 27.078 25.2683 27.1589 25.5 27.1589C25.7317 27.1589 25.9562 27.078 26.1346 26.9303L36.0092 18.3303C35.681 17.5838 34.935 17.0625 34.0673 17.0625H16.9327C15.9725 17.0625 15.1613 17.7009 14.9005 18.5763ZM36.1875 19.6667L26.8569 27.7928C26.476 28.1101 25.9958 28.2839 25.5 28.2839C25.0042 28.2839 24.524 28.1101 24.1431 27.7928L24.1379 27.7885L15.0099 20C14.9609 19.9582 14.8909 19.8902 14.8125 19.8065L14.8125 32.4231C14.8125 33.594 15.7617 34.5433 16.9327 34.5433H34.0673C35.2383 34.5433 36.1875 33.594 36.1875 32.4231V19.6667Z"
        fill="#FF7F92" />
    <defs>
        <filter id="filter0_d_282_332" x="0" y="0" width="53" height="53"
            filterUnits="userSpaceOnUse" color-interpolation-filters="sRGB">
            <feFlood flood-opacity="0" result="BackgroundImageFix" />
            <feColorMatrix in="SourceAlpha" type="matrix"
                values="0 0 0 0 0 0 0 0 0 0 0 0 0 0 0 0 0 0 127 0" result="hardAlpha" />
            <feOffset dx="1" dy="1" />
            <feGaussianBlur stdDeviation="2" />
            <feComposite in2="hardAlpha" operator="out" />
            <feColorMatrix type="matrix" values="0 0 0 0 0 0 0 0 0 0 0 0 0 0 0 0 0 0 0.15 0" />
            <feBlend mode="normal" in2="BackgroundImageFix" result="effect1_dropShadow_282_332" />
            <feBlend mode="normal" in="SourceGraphic" in2="effect1_dropShadow_282_332"
                result="shape" />
        </filter>
    </defs>
</svg>
    