<svg width="45" height="46" viewBox="0 0 45 46" fill="none" xmlns="http://www.w3.org/2000/svg">
    <path fill-rule="evenodd" clip-rule="evenodd"
        d="M25.1503 11.7589C24.8994 11.7229 24.6473 11.7971 24.4467 11.9568C24.2406 12.1187 24.1117 12.3525 24.0837 12.6145C24.0243 13.144 24.4064 13.6229 24.9352 13.6825C28.5821 14.0894 31.4167 16.9304 31.8267 20.5886C31.8816 21.0788 32.2928 21.4486 32.7835 21.4486C32.8205 21.4486 32.8564 21.4464 32.8933 21.4419C33.1499 21.4138 33.3785 21.2868 33.5398 21.0844C33.7 20.882 33.7728 20.6302 33.7437 20.3728C33.2328 15.8084 29.7002 12.2659 25.1503 11.7589ZM25.2204 15.6762C24.6848 15.5772 24.193 15.919 24.091 16.4418C23.989 16.9645 24.3319 17.4749 24.8529 17.5773C26.4214 17.883 27.6326 19.0972 27.9395 20.6711V20.6722C28.0269 21.1253 28.4258 21.4547 28.8851 21.4547C28.9468 21.4547 29.0084 21.4491 29.0711 21.4378C29.5921 21.3333 29.935 20.824 29.833 20.3001C29.3748 17.9494 27.5653 16.1337 25.2204 15.6762ZM27.0001 26.4769C27.508 26.184 28.0816 25.8532 28.8053 26.0072C29.4607 26.1454 31.6947 27.9588 32.3065 28.5873C32.7076 28.9987 32.9305 29.4237 32.9653 29.8486C33.0258 31.5159 30.7603 33.4192 30.348 33.6564C29.8002 34.051 29.1627 34.25 28.4467 34.25C27.7151 34.25 26.8995 34.042 26.0099 33.6272C21.1833 31.6126 13.81 24.3849 11.8605 19.5957C11.0516 17.8127 11.046 16.3422 11.847 15.2371C12.1664 14.7188 13.987 12.5524 15.6172 12.621C16.0507 12.6581 16.472 12.8807 16.8854 13.2854C17.5106 13.8981 19.2786 16.1387 19.4153 16.7964C19.5665 17.5271 19.2349 18.1083 18.9402 18.6187C18.8774 18.7285 18.7927 18.8587 18.6999 19.0013C18.3478 19.5427 17.8792 20.2633 18.045 20.7233C19.2338 23.6418 21.9798 26.1882 24.8996 27.3843C25.3511 27.5484 26.0713 27.0765 26.6109 26.7228C26.7515 26.6307 26.8799 26.5466 26.988 26.4838L27.0001 26.4769Z"
        fill="#FF7F92" />
</svg>