<svg width="53" height="53" viewBox="0 0 53 53" fill="none" xmlns="http://www.w3.org/2000/svg">
    <g filter="url(#filter0_d_282_322)">
        <circle cx="25.5" cy="25.5" r="22.5" fill="black" />
    </g>
    <path fill-rule="evenodd" clip-rule="evenodd"
        d="M28.1503 14.2589C27.8994 14.2229 27.6473 14.2971 27.4467 14.4568C27.2406 14.6187 27.1117 14.8525 27.0837 15.1145C27.0243 15.644 27.4064 16.1229 27.9352 16.1825C31.5821 16.5894 34.4167 19.4304 34.8267 23.0886C34.8816 23.5788 35.2928 23.9486 35.7835 23.9486C35.8205 23.9486 35.8564 23.9464 35.8933 23.9419C36.1499 23.9138 36.3785 23.7868 36.5398 23.5844C36.7 23.382 36.7728 23.1302 36.7437 22.8728C36.2328 18.3084 32.7002 14.7659 28.1503 14.2589ZM28.2204 18.1762C27.6848 18.0772 27.193 18.419 27.091 18.9418C26.989 19.4645 27.3319 19.9749 27.8529 20.0773C29.4214 20.383 30.6326 21.5972 30.9395 23.1711V23.1722C31.0269 23.6253 31.4258 23.9547 31.8851 23.9547C31.9468 23.9547 32.0084 23.9491 32.0711 23.9378C32.5921 23.8333 32.935 23.324 32.833 22.8001C32.3748 20.4494 30.5653 18.6337 28.2204 18.1762ZM30.0001 28.9769C30.508 28.684 31.0816 28.3532 31.8053 28.5072C32.4607 28.6454 34.6947 30.4588 35.3065 31.0873C35.7076 31.4987 35.9305 31.9237 35.9653 32.3486C36.0258 34.0159 33.7603 35.9192 33.348 36.1564C32.8002 36.551 32.1627 36.75 31.4467 36.75C30.7151 36.75 29.8995 36.542 29.0099 36.1272C24.1833 34.1126 16.81 26.8849 14.8605 22.0957C14.0516 20.3127 14.046 18.8422 14.847 17.7371C15.1664 17.2188 16.987 15.0524 18.6172 15.121C19.0507 15.1581 19.472 15.3807 19.8854 15.7854C20.5106 16.3981 22.2786 18.6387 22.4153 19.2964C22.5665 20.0271 22.2349 20.6083 21.9402 21.1187C21.8774 21.2285 21.7927 21.3587 21.6999 21.5013C21.3478 22.0427 20.8792 22.7633 21.045 23.2233C22.2338 26.1418 24.9798 28.6882 27.8996 29.8843C28.3511 30.0484 29.0713 29.5765 29.6109 29.2228C29.7515 29.1307 29.8799 29.0466 29.988 28.9838L30.0001 28.9769Z"
        fill="#FF7F92" />
    <defs>
        <filter id="filter0_d_282_322" x="0" y="0" width="53" height="53"
            filterUnits="userSpaceOnUse" color-interpolation-filters="sRGB">
            <feFlood flood-opacity="0" result="BackgroundImageFix" />
            <feColorMatrix in="SourceAlpha" type="matrix"
                values="0 0 0 0 0 0 0 0 0 0 0 0 0 0 0 0 0 0 127 0" result="hardAlpha" />
            <feOffset dx="1" dy="1" />
            <feGaussianBlur stdDeviation="2" />
            <feComposite in2="hardAlpha" operator="out" />
            <feColorMatrix type="matrix" values="0 0 0 0 0 0 0 0 0 0 0 0 0 0 0 0 0 0 0.15 0" />
            <feBlend mode="normal" in2="BackgroundImageFix" result="effect1_dropShadow_282_322" />
            <feBlend mode="normal" in="SourceGraphic" in2="effect1_dropShadow_282_322"
                result="shape" />
        </filter>
    </defs>
</svg>
    