<svg width="159" height="27" viewBox="0 0 159 27" fill="none" xmlns="http://www.w3.org/2000/svg">
<g clip-path="url(#clip0_11_6829)">
<path d="M80.2502 23.6298V17.0884H83.4286C85.6642 17.0884 86.6264 18.0992 86.6264 19.4308C86.6264 20.4611 85.9266 21.2873 84.6922 21.5984V21.6372C86.3543 21.8997 87.1221 22.8911 87.1221 23.9311C87.1221 25.3502 85.9752 26.5652 83.7591 26.5652H80.26V23.6395L80.2502 23.6298ZM83.2634 21.1221C84.5853 21.1221 85.2948 20.6264 85.2948 19.5961C85.2948 18.7116 84.5755 18.2062 83.2828 18.2062H81.5624V21.1221H83.2634ZM81.5624 22.2399V25.4474H83.3606C84.8185 25.4474 85.7711 24.9711 85.7711 23.8242C85.7711 22.7647 84.8866 22.2399 83.2731 22.2399H81.5527H81.5624Z" fill="white"/>
<path d="M95.8603 17.0885C95.2868 17.9632 94.6356 18.9935 94.0621 19.9072L92.2639 22.7551V26.5555H90.9518V22.7356L89.2605 19.9169C88.7065 18.9741 88.0747 17.9244 87.5596 17.0787H89.1245C89.6202 17.9341 90.2325 18.9838 90.7282 19.8878L91.6516 21.4721H91.6905L92.6819 19.8489C93.2262 18.9449 93.8483 17.9146 94.3829 17.0787H95.8408L95.8603 17.0885Z" fill="white"/>
<path d="M113.269 26.711C112.462 26.711 111.772 26.5458 111.208 26.225C110.634 25.9043 110.197 25.4474 109.896 24.8545C109.594 24.2616 109.439 23.5521 109.439 22.7162V19.0129C109.439 18.6728 109.439 18.3423 109.439 18.0215C109.439 17.7008 109.439 17.3897 109.439 17.1079H110.741C110.741 17.3995 110.741 17.7008 110.741 18.0215C110.741 18.3423 110.741 18.6728 110.741 19.0129C110.741 19.3531 110.741 19.6933 110.741 20.0238V22.7648C110.741 23.3382 110.839 23.8242 111.043 24.2422C111.237 24.6504 111.529 24.9712 111.908 25.1753C112.287 25.3891 112.734 25.496 113.269 25.496C113.803 25.496 114.25 25.3891 114.629 25.1753C115.008 24.9614 115.3 24.6504 115.494 24.2422C115.689 23.834 115.786 23.3382 115.786 22.7648V19.0032C115.786 18.663 115.786 18.3326 115.786 18.0118C115.786 17.691 115.786 17.38 115.786 17.0981H117.108V22.7065C117.108 23.5424 116.952 24.2519 116.651 24.8448C116.35 25.4377 115.912 25.8945 115.339 26.2153C114.765 26.5361 114.075 26.7013 113.278 26.7013L113.269 26.711Z" fill="white"/>
<path d="M123.795 26.5457L120.665 18.488H120.626V26.5457H119.333C119.333 26.2444 119.333 25.9334 119.333 25.6126C119.333 25.2919 119.333 24.9614 119.333 24.6309C119.333 24.3005 119.333 23.9603 119.333 23.6298V20.0335C119.333 19.703 119.333 19.3628 119.333 19.0226C119.333 18.6824 119.333 18.352 119.333 18.0312C119.333 17.7105 119.333 17.3994 119.333 17.1176H121.423L124.504 25.1072H124.543L127.615 17.1176H129.636C129.636 17.4091 129.636 17.7105 129.636 18.0312C129.636 18.352 129.636 18.6824 129.636 19.0226C129.636 19.3628 129.636 19.703 129.636 20.0335V23.6298C129.636 23.9603 129.636 24.3005 129.636 24.6309C129.636 24.9614 129.636 25.2919 129.636 25.6126C129.636 25.9334 129.636 26.2444 129.636 26.5457H128.334V18.5658H128.295L125.224 26.5457H123.785H123.795Z" fill="white"/>
<path d="M138.355 25.4085V26.5457H132.105C132.105 26.2638 132.105 25.9722 132.105 25.6515C132.105 25.3404 132.105 25.0197 132.105 24.6892C132.105 24.3587 132.105 24.0283 132.105 23.7075V20.0237C132.105 19.6932 132.105 19.3531 132.105 19.0129C132.105 18.6727 132.105 18.3422 132.105 18.0214C132.105 17.7007 132.105 17.3897 132.105 17.1078H138.258V18.2644C138.054 18.2644 137.83 18.2547 137.597 18.2547C137.364 18.2547 137.111 18.2547 136.839 18.2547C136.567 18.2547 136.266 18.2547 135.945 18.2547H133.418V21.1998H136.256C136.528 21.1998 136.781 21.1998 137.014 21.1998C137.247 21.1998 137.461 21.1998 137.675 21.1998V22.337C137.471 22.337 137.247 22.337 137.014 22.337C136.781 22.337 136.528 22.337 136.256 22.337H133.418V25.3793H136.042C136.372 25.3793 136.664 25.3793 136.936 25.3793C137.208 25.3793 137.461 25.3793 137.694 25.3793H138.355H138.346L138.355 25.4085Z" fill="white"/>
<path d="M139.93 25.632C139.93 25.3113 139.93 24.9808 139.93 24.6406C139.93 24.3004 139.93 23.9602 139.93 23.6298V17.1078H141.864L146.345 25.0391H146.384V20.0237C146.384 19.6932 146.384 19.3531 146.384 19.0129C146.384 18.6727 146.384 18.3422 146.384 18.0214C146.384 17.7007 146.384 17.3897 146.384 17.1078H147.686V26.5554H145.781L141.271 18.5658H141.213V26.5554H139.92C139.92 26.2638 139.92 25.9625 139.92 25.6418L139.93 25.632Z" fill="white"/>
<path d="M150.155 25.632V17.1078H151.477C151.477 17.3994 151.477 17.7007 151.477 18.0214C151.477 18.3422 151.477 18.6727 151.477 19.0129C151.477 19.3531 151.477 19.6932 151.477 20.0237V23.62C151.477 23.9505 151.477 24.2907 151.477 24.6309C151.477 24.9711 151.477 25.3016 151.477 25.6223C151.477 25.9431 151.477 26.2541 151.477 26.536H150.155V25.6223V25.632Z" fill="white"/>
<path d="M155.773 26.711C155.287 26.711 154.801 26.6332 154.315 26.468C153.829 26.3028 153.411 26.0792 153.042 25.7973V24.5435C153.518 24.8837 153.975 25.1364 154.403 25.2919C154.83 25.4474 155.248 25.5252 155.657 25.5252C156.026 25.5252 156.366 25.4669 156.658 25.36C156.959 25.253 157.192 25.0878 157.367 24.8545C157.542 24.631 157.63 24.3588 157.63 24.0381C157.63 23.7173 157.533 23.4743 157.338 23.2702C157.144 23.0661 156.842 22.8717 156.434 22.6967L155.229 22.1524C154.578 21.8608 154.092 21.5109 153.761 21.0833C153.431 20.6653 153.275 20.189 153.275 19.6642C153.275 19.1685 153.411 18.7116 153.683 18.3034C153.956 17.8952 154.335 17.5647 154.821 17.312C155.307 17.0593 155.851 16.9426 156.454 16.9426C156.891 16.9426 157.309 17.0107 157.707 17.137C158.106 17.2634 158.436 17.4189 158.689 17.6036V18.7894C158.339 18.5755 157.98 18.4103 157.63 18.3034C157.28 18.1965 156.92 18.1382 156.561 18.1382C156.181 18.1382 155.841 18.1965 155.55 18.3034C155.258 18.42 155.025 18.5853 154.86 18.8088C154.694 19.0324 154.617 19.2948 154.617 19.6058C154.617 19.9169 154.714 20.1696 154.898 20.3931C155.083 20.6167 155.384 20.8208 155.793 21.0055L157.017 21.5595C157.678 21.8608 158.174 22.1913 158.505 22.5704C158.835 22.9495 159 23.416 159 23.9797C159 24.5046 158.854 24.9809 158.573 25.3988C158.291 25.8168 157.902 26.1473 157.406 26.3805C156.91 26.6138 156.376 26.7304 155.783 26.7304L155.773 26.711Z" fill="white"/>
<path d="M100.302 26.1958C101.323 25.9722 101.546 25.4279 101.731 24.8059L103.481 18.8282C103.762 17.8951 103.374 17.5841 102.654 17.4577V17.1078H106.328V17.4577C105.541 17.5452 105.133 17.8951 104.88 18.8185L102.81 25.8264H105.259C106.474 25.8264 107.213 24.6989 107.213 23.2993H107.689V26.5457H100.283V26.1958H100.302Z" fill="white"/>
</g>
<path d="M2.08003 8.11602L0 0H3.88791L5.85131 7.9605L9.42819 22.4235H9.54482L15.192 0H19.9256L25.3881 22.4235H25.5047L29.3537 7.58143C29.9564 5.07373 30.6173 2.61462 31.3074 0H34.9621C34.2331 2.61462 33.5818 5.15148 32.882 7.72722L27.7305 26.7294H23.0748L17.5345 4.00455H17.4178L11.6054 26.7294H6.8816L2.08003 8.11602Z" fill="white"/>
<path d="M42.0966 26.7294H38.5586V8.46594H42.0966V26.7294Z" fill="white"/>
<path d="M42.0966 6.41506H38.5586V0H42.0966V6.41506Z" fill="#48B592"/>
<path d="M46.4023 26.7294V23.4247L61.3222 3.38248V3.26585H46.8203V0H65.6281V3.30473L50.7082 23.3372V23.4538H65.9002V26.7197H46.4023V26.7294Z" fill="white"/>
<defs>
<clipPath id="clip0_11_6829">
<rect width="94" height="13.711" fill="white" transform="translate(65 13)"/>
</clipPath>
</defs>
</svg>
