<svg width="19" height="21" viewBox="0 0 19 21" fill="none" xmlns="http://www.w3.org/2000/svg">
<path d="M0.7996 14.1705C0.356131 14.1705 0 14.4011 0 14.6864V19.9771C0 20.2622 0.356131 20.4911 0.7996 20.4911H1.88318C2.32692 20.4911 2.68278 20.2622 2.68278 19.9771V14.6864C2.68278 14.4008 2.32692 14.1705 1.88318 14.1705H0.7996ZM6.09979 13.6115C5.20987 13.6625 4.55023 14.0184 4.10107 14.4974C3.86374 14.7501 3.72676 15.285 3.72676 15.6327V19.2299C3.72676 19.9264 4.29174 20.4911 4.98828 20.4911H13.1733C13.4305 20.4911 13.6832 20.4105 13.8924 20.2611L18.5245 16.1302C19.2945 15.4917 18.0585 14.3178 16.3278 15.3165L13.2821 17.1245C12.8598 17.3676 12.5967 17.4142 12.1334 17.4142H8.80102C7.81617 17.4142 7.95911 16.4071 8.8276 16.4071H11.7887C13.0233 16.4071 13.022 14.6341 11.7887 14.4339L7.06593 13.6679C6.73448 13.6253 6.39083 13.5947 6.09979 13.6115Z" fill="white"/>
<path d="M14.3936 0.912537C14.8569 0.912537 15.2835 1.16831 15.5141 1.58384L17.0311 3.73527C17.1963 4.03363 16.9858 4.36101 16.6554 4.40604H10.3818L9.86725 0.912537H14.3936Z" fill="white"/>
<path d="M2.08204 5.19534C1.61742 5.19534 1.24176 5.59785 1.24176 6.09801V13.2025H1.88296C2.2814 13.2025 2.68391 13.2591 3.00316 13.5176C3.33515 13.7856 3.20251 13.9044 3.65602 13.5681C4.80578 12.7126 5.95148 12.5092 7.22845 12.7167L11.9512 13.4805C12.2902 13.5355 12.5796 13.6839 12.8425 13.8567C13.0559 13.9977 13.1194 14.3503 13.3638 14.3503H16.6764C17.1415 14.3503 17.5158 13.9483 17.5158 13.4482V6.09774C17.5158 5.59758 17.1415 5.19507 16.6764 5.19507H2.08204V5.19534Z" fill="white"/>
<path d="M4.36359 0.912537C3.90141 0.912537 3.47367 1.16831 3.24312 1.58384L1.72611 3.73527C1.56093 4.03363 1.77249 4.36101 2.10204 4.40604H8.37542L8.88968 0.912808H4.36359V0.912537Z" fill="white"/>
</svg>
