<svg width="20" height="20" viewBox="0 0 20 20" fill="none" xmlns="http://www.w3.org/2000/svg">
<path opacity="0.8" d="M10 5.85938C9.741 5.85938 9.49261 5.75649 9.30947 5.57335C9.12632 5.39021 9.02344 5.14181 9.02344 4.88281V0.976562C9.02344 0.717562 9.12632 0.46917 9.30947 0.286029C9.49261 0.102888 9.741 0 10 0C10.259 0 10.5074 0.102888 10.6905 0.286029C10.8737 0.46917 10.9766 0.717562 10.9766 0.976562V4.88281C10.9766 5.14181 10.8737 5.39021 10.6905 5.57335C10.5074 5.75649 10.259 5.85938 10 5.85938Z" fill="white"/>
<path opacity="0.4" d="M10 20C9.741 20 9.49261 19.8971 9.30947 19.714C9.12632 19.5308 9.02344 19.2824 9.02344 19.0234V15.1172C9.02344 14.8582 9.12632 14.6098 9.30947 14.4267C9.49261 14.2435 9.741 14.1406 10 14.1406C10.259 14.1406 10.5074 14.2435 10.6905 14.4267C10.8737 14.6098 10.9766 14.8582 10.9766 15.1172V19.0234C10.9766 19.2824 10.8737 19.5308 10.6905 19.714C10.5074 19.8971 10.259 20 10 20Z" fill="white"/>
<path opacity="0.6" d="M4.88281 10.9766H0.976562C0.717562 10.9766 0.46917 10.8737 0.286029 10.6905C0.102888 10.5074 0 10.259 0 10C0 9.741 0.102888 9.49261 0.286029 9.30947C0.46917 9.12632 0.717562 9.02344 0.976562 9.02344H4.88281C5.14181 9.02344 5.39021 9.12632 5.57335 9.30947C5.75649 9.49261 5.85938 9.741 5.85938 10C5.85938 10.259 5.75649 10.5074 5.57335 10.6905C5.39021 10.8737 5.14181 10.9766 4.88281 10.9766Z" fill="white"/>
<path d="M19.0234 10.9766H15.1172C14.8582 10.9766 14.6098 10.8737 14.4267 10.6905C14.2435 10.5074 14.1406 10.259 14.1406 10C14.1406 9.741 14.2435 9.49261 14.4267 9.30947C14.6098 9.12632 14.8582 9.02344 15.1172 9.02344H19.0234C19.2824 9.02344 19.5308 9.12632 19.714 9.30947C19.8971 9.49261 20 9.741 20 10C20 10.259 19.8971 10.5074 19.714 10.6905C19.5308 10.8737 19.2824 10.9766 19.0234 10.9766Z" fill="white"/>
<path opacity="0.9" d="M13.6183 7.35823C13.4253 7.35788 13.2368 7.30035 13.0764 7.19289C12.9161 7.08544 12.7912 6.93289 12.7175 6.7545C12.6438 6.57612 12.6247 6.3799 12.6624 6.19062C12.7002 6.00134 12.7932 5.8275 12.9297 5.69104L15.6898 2.92971C15.7795 2.83464 15.8873 2.75852 16.0069 2.70586C16.1264 2.6532 16.2554 2.62508 16.386 2.62315C16.5167 2.62123 16.6464 2.64554 16.7675 2.69466C16.8885 2.74377 16.9985 2.81668 17.0909 2.90908C17.1833 3.00147 17.2562 3.11147 17.3054 3.23255C17.3545 3.35363 17.3788 3.48334 17.3769 3.61399C17.3749 3.74464 17.3468 3.87358 17.2942 3.99316C17.2415 4.11275 17.1654 4.22055 17.0703 4.31018L14.3082 7.07229C14.2177 7.163 14.1101 7.23494 13.9918 7.28401C13.8734 7.33308 13.7465 7.3583 13.6183 7.35823Z" fill="white"/>
<path opacity="0.5" d="M3.61952 17.357C3.42641 17.3569 3.23768 17.2995 3.07717 17.1922C2.91666 17.0848 2.79158 16.9323 2.71775 16.7538C2.64392 16.5754 2.62465 16.3791 2.66237 16.1897C2.70009 16.0003 2.79311 15.8264 2.92967 15.6898L5.691 12.9297C5.7817 12.839 5.88937 12.767 6.00786 12.718C6.12636 12.6689 6.25337 12.6436 6.38163 12.6436C6.50989 12.6436 6.63689 12.6689 6.75539 12.718C6.87389 12.767 6.98156 12.839 7.07225 12.9297C7.16295 13.0204 7.23489 13.128 7.28397 13.2465C7.33306 13.365 7.35832 13.492 7.35832 13.6203C7.35832 13.7486 7.33306 13.8756 7.28397 13.9941C7.23489 14.1126 7.16295 14.2202 7.07225 14.3109L4.31014 17.0703C4.21958 17.1612 4.11195 17.2334 3.99344 17.2826C3.87492 17.3318 3.74785 17.3571 3.61952 17.357Z" fill="white"/>
<path opacity="0.7" d="M6.38167 7.35823C6.25339 7.3584 6.12635 7.33323 6.00783 7.28416C5.88931 7.23509 5.78165 7.16309 5.69104 7.07229L2.92971 4.31018C2.83464 4.22055 2.75852 4.11275 2.70586 3.99316C2.6532 3.87358 2.62508 3.74464 2.62315 3.61399C2.62123 3.48334 2.64554 3.35363 2.69466 3.23255C2.74377 3.11147 2.81668 3.00147 2.90908 2.90908C3.00147 2.81668 3.11147 2.74377 3.23255 2.69466C3.35363 2.64554 3.48334 2.62123 3.61399 2.62315C3.74464 2.62508 3.87358 2.6532 3.99316 2.70586C4.11275 2.75852 4.22055 2.83464 4.31018 2.92971L7.07229 5.69182C7.2089 5.8284 7.30194 6.00242 7.33964 6.19188C7.37733 6.38134 7.35799 6.57772 7.28406 6.75619C7.21014 6.93465 7.08494 7.08718 6.92431 7.19449C6.76368 7.30179 6.57484 7.35905 6.38167 7.35901V7.35823Z" fill="white"/>
<path d="M16.3805 17.357C16.2521 17.3571 16.1251 17.3318 16.0066 17.2826C15.888 17.2334 15.7804 17.1612 15.6898 17.0703L12.9297 14.309C12.7618 14.1232 12.6717 13.8799 12.678 13.6296C12.6844 13.3792 12.7867 13.1409 12.9638 12.9638C13.1409 12.7867 13.3792 12.6844 13.6296 12.678C13.8799 12.6717 14.1232 12.7618 14.309 12.9297L17.0703 15.6898C17.2069 15.8264 17.3 16.0004 17.3377 16.1899C17.3754 16.3794 17.356 16.5757 17.2821 16.7542C17.2082 16.9327 17.083 17.0852 16.9223 17.1925C16.7617 17.2998 16.5729 17.3571 16.3797 17.357H16.3805Z" fill="white"/>
</svg>
