<svg width="20" height="20" viewBox="0 0 20 20" fill="none" xmlns="http://www.w3.org/2000/svg">
<g clip-path="url(#clip0_17328_12599)">
<path d="M18.1936 14.3454L6.79346 4.12384V19.4164L9.96408 16.0199L11.7281 20L15.2982 18.4177L13.5169 14.399L18.1936 14.3454Z" fill="white"/>
<path d="M4.61011 0.553864L5.68173 0.0803833L6.89923 2.83566L5.82761 3.30914L4.61011 0.553864Z" fill="white"/>
<path d="M8.05811 2.81052L9.14209 0L10.2352 0.4216L9.15109 3.23212L8.05811 2.81052Z" fill="white"/>
<path d="M9.99536 4.03519L12.7477 2.81128L13.2237 3.88168L10.4714 5.10559L9.99536 4.03519Z" fill="white"/>
<path d="M1.79688 4.15054L2.22092 3.05847L5.02899 4.14902L4.60495 5.24109L1.79688 4.15054Z" fill="white"/>
<path d="M1.87207 7.61823L4.6301 6.40698L5.10114 7.47968L2.34311 8.69092L1.87207 7.61823Z" fill="white"/>
</g>
<defs>
<clipPath id="clip0_17328_12599">
<rect width="20" height="20" fill="white"/>
</clipPath>
</defs>
</svg>
