<svg width="20" height="20" viewBox="0 0 20 20" fill="none" xmlns="http://www.w3.org/2000/svg">
<g clip-path="url(#clip0_17328_17441)">
<path d="M19.9015 10.2613L17.7354 7.07074L19.9015 3.88014C20.0028 3.72796 20.0274 3.538 19.9684 3.36519C19.909 3.19237 19.7727 3.05675 19.5994 2.99956L12.5291 0.655832C12.2762 0.570559 12.0027 0.666691 11.8562 0.886416L9.99997 3.67073L8.14374 0.886416C7.99612 0.665558 7.7203 0.569973 7.47081 0.655832L0.400556 2.99956C0.227198 3.05679 0.0909881 3.19241 0.0314963 3.36519C-0.0274485 3.538 -0.00283931 3.72796 0.0984489 3.88018L2.2646 7.07078L0.098488 10.2613C-0.00280025 10.4135 -0.0274094 10.6035 0.0315354 10.7763C0.0910271 10.9492 0.227237 11.0848 0.400595 11.142L7.47085 13.4857C7.71968 13.5694 7.99647 13.476 8.14378 13.2551L10 10.4708L11.8562 13.2551C12.0037 13.4762 12.2806 13.5693 12.5292 13.4857L19.5994 11.142C19.7728 11.0847 19.909 10.9491 19.9685 10.7763C20.0274 10.6035 20.0028 10.4136 19.9015 10.2613ZM10 8.7971L4.82103 7.07078L10 5.34447L15.179 7.07078L10 8.7971Z" fill="white"/>
<path d="M12.8998 14.5975C12.1623 14.8449 11.3285 14.5766 10.8811 13.9051L9.99998 12.5834L9.11874 13.9051C8.67222 14.5753 7.83937 14.8461 7.09715 14.5963L2.38281 13.025V16.4457C2.38281 16.6981 2.54418 16.9218 2.78336 17.0013L9.81111 19.3439C9.83229 19.3514 9.85346 19.3571 9.87463 19.3617C9.87463 19.3617 9.87522 19.3617 9.87522 19.3622H9.8758C9.91701 19.3708 9.95877 19.3754 9.99998 19.3754C10.044 19.3754 10.0875 19.3703 10.131 19.3605C10.1504 19.356 10.1693 19.3508 10.1882 19.3445L17.2166 17.0014C17.4557 16.9218 17.6171 16.6981 17.6171 16.4457V13.0251L12.8998 14.5975Z" fill="white"/>
</g>
<defs>
<clipPath id="clip0_17328_17441">
<rect width="20" height="20" fill="white"/>
</clipPath>
</defs>
</svg>
