<svg width="18" height="18" viewBox="0 0 18 18" fill="none" xmlns="http://www.w3.org/2000/svg">
<path d="M17.987 1.60796C18.0465 1.1658 17.8997 0.731233 17.5842 0.415776C17.2687 0.100284 16.8341 -0.0463878 16.392 0.0129208C15.2877 0.161385 14.2455 0.677057 13.4576 1.46501L11.7343 3.1883L4.15802 1.04057C3.97419 0.988506 3.77644 1.03987 3.64133 1.17504L2.02503 2.79135C1.90631 2.91007 1.85122 3.07823 1.87668 3.24423C1.90213 3.41021 2.0051 3.5541 2.15399 3.63176L8.15814 6.76446L5.63869 9.28393L2.05516 8.29165C1.87221 8.24095 1.67593 8.29263 1.54157 8.427L0.154451 9.81402C0.0372413 9.93119 -0.018024 10.0967 0.0052141 10.2608C0.0284171 10.4249 0.127487 10.5686 0.272576 10.6486L4.83456 13.1654L7.35131 17.7274C7.43136 17.8726 7.57501 17.9716 7.73912 17.9948C7.7638 17.9983 7.78848 18 7.81309 18C7.95188 18 8.08636 17.9451 8.18592 17.8455L9.573 16.4584C9.70733 16.3241 9.75904 16.1279 9.70835 15.9448L8.71604 12.3613L11.2355 9.84175L14.3682 15.846C14.4459 15.9948 14.5898 16.0978 14.7557 16.1233C14.7825 16.1274 14.8092 16.1294 14.8358 16.1294C14.9745 16.1294 15.1089 16.0746 15.2086 15.9749L16.8249 14.3586C16.9601 14.2235 17.0115 14.0258 16.9594 13.8419L14.8116 6.26559L16.5349 4.54231C17.3229 3.75446 17.8386 2.71229 17.987 1.60796Z" fill="white"/>
</svg>
